<?xml version="1.0" standalone="no"?>
<!DOCTYPE svg PUBLIC "-//W3C//DTD SVG 20010904//EN"
 "http://www.w3.org/TR/2001/REC-SVG-20010904/DTD/svg10.dtd">
<svg version="1.0" xmlns="http://www.w3.org/2000/svg"
 width="602.000000pt" height="157.000000pt" viewBox="0 0 602.000000 157.000000"
 preserveAspectRatio="xMidYMid meet">

<g transform="translate(0.000000,157.000000) scale(0.100000,-0.100000)"
fill="#000000" stroke="none">
<path d="M3363 1363 c-16 -21 -41 -59 -56 -85 -57 -100 -148 -433 -150 -551
-2 -100 70 -136 151 -76 27 20 41 37 38 46 -4 9 17 36 52 70 l57 55 -63 -53
c-94 -79 -145 -117 -164 -122 -51 -14 -51 96 0 159 67 84 199 399 209 501 9
98 -23 122 -74 56z m47 -16 c0 -50 -52 -192 -124 -339 -58 -118 -74 -144 -70
-113 21 150 148 475 186 475 4 0 8 -10 8 -23z m-26 -176 c-9 -23 -18 -40 -20
-38 -2 2 4 22 13 45 9 23 18 40 20 38 2 -2 -4 -22 -13 -45z m-54 -131 c-19
-39 -38 -70 -42 -70 -4 0 3 21 17 48 14 26 29 60 35 76 6 16 14 26 17 22 4 -3
-9 -38 -27 -76z"/>
<path d="M5277 1292 c-55 -121 -117 -366 -117 -465 0 -18 -13 -47 -32 -73 -59
-78 -78 -60 -34 31 20 40 25 45 25 26 1 -28 15 -19 26 17 6 22 4 23 -26 20
-40 -4 -74 -48 -84 -110 -6 -36 -4 -44 15 -60 32 -26 38 -23 86 27 l44 45 14
-29 c9 -16 23 -31 31 -35 57 -21 143 16 188 81 39 56 33 60 -21 14 -85 -72
-160 -91 -180 -46 -17 36 -15 60 7 104 49 96 141 400 144 476 2 47 0 50 -24
53 -23 3 -29 -4 -62 -76z m46 -32 c-8 -36 -16 -77 -17 -92 0 -14 -4 -24 -7
-22 -4 2 -9 -11 -13 -28 -3 -18 -17 -60 -30 -93 -14 -33 -30 -73 -36 -89 -40
-106 11 140 55 263 28 79 54 135 60 129 2 -2 -3 -32 -12 -68z"/>
<path d="M2618 1329 c-47 -27 -138 -234 -164 -374 -8 -45 -36 -161 -42 -175
-3 -8 -6 -35 -7 -60 0 -25 -4 -87 -9 -137 -7 -80 -7 -93 7 -93 19 0 24 13 32
86 12 120 14 126 31 109 21 -21 71 -18 119 5 22 11 32 18 23 15 -31 -8 -19 13
13 24 40 14 42 14 33 0 -4 -7 12 -1 35 11 22 13 37 27 31 30 -6 3 6 14 25 23
19 9 35 22 35 29 0 9 -2 10 -8 2 -15 -24 -205 -107 -255 -112 -66 -6 -60 9 24
66 56 39 85 72 63 72 -11 0 -113 -60 -119 -71 -4 -5 -11 -9 -17 -9 -6 0 2 12
17 28 94 94 180 288 192 434 7 98 -10 126 -59 97z m12 -162 c-12 -45 -22 -89
-23 -97 -1 -8 -8 -21 -15 -29 -7 -7 -11 -20 -8 -27 3 -8 1 -14 -4 -14 -5 0 -7
-6 -4 -14 3 -8 -4 -24 -15 -35 -12 -12 -18 -21 -14 -21 4 0 -3 -7 -15 -16 -13
-9 -21 -22 -19 -29 3 -6 -6 -25 -20 -41 l-25 -29 23 35 c23 35 23 35 1 16 -26
-22 -26 -21 -8 66 32 149 82 278 135 348 l26 35 3 -33 c2 -18 -6 -69 -18 -115z
m66 -412 c-11 -8 -25 -15 -30 -15 -6 0 -2 7 8 15 11 8 25 15 30 15 6 0 2 -7
-8 -15z"/>
<path d="M830 1013 l0 -136 118 113 c64 62 128 124 142 137 l25 23 -143 0
-142 0 0 -137z"/>
<path d="M679 998 l-126 -133 124 -3 c97 -3 124 0 128 10 3 8 4 69 3 136 l-3
122 -126 -132z"/>
<path d="M1045 1059 l-40 -42 53 30 c53 30 65 45 40 51 -7 1 -31 -16 -53 -39z"/>
<path d="M394 968 l2 -103 59 0 c53 -1 63 2 94 31 l35 32 -65 70 c-52 58 -70
71 -95 72 l-31 0 1 -102z"/>
<path d="M345 1030 l-29 -30 31 0 c26 0 30 3 31 30 0 17 0 30 -2 30 -1 0 -15
-13 -31 -30z"/>
<path d="M3631 853 c-21 -23 -56 -77 -77 -122 -21 -44 -43 -81 -47 -81 -5 0
-6 8 -3 18 2 9 8 45 11 80 7 59 -2 92 -25 92 -4 0 -10 -39 -14 -87 -10 -125
-43 -352 -61 -421 -20 -79 -23 -156 -6 -176 21 -25 31 -19 31 18 0 117 79 425
140 546 34 66 86 140 100 140 15 0 12 -47 -5 -79 -8 -16 -11 -32 -7 -36 4 -5
2 -5 -4 -2 -6 4 -19 -2 -29 -13 -14 -16 -20 -17 -27 -8 -6 10 -8 9 -8 -3 0 -8
6 -24 14 -35 14 -18 16 -17 55 24 44 46 71 114 55 140 -6 8 -20 22 -32 30 -21
14 -25 12 -61 -25z"/>
<path d="M4261 853 c-21 -23 -56 -77 -77 -122 -37 -77 -62 -106 -51 -58 15 64
19 138 7 152 -22 27 -27 17 -34 -67 -12 -145 -36 -320 -56 -403 -31 -134 -34
-163 -16 -190 23 -35 36 -31 36 9 0 117 72 400 135 535 36 74 89 151 106 151
14 0 11 -48 -6 -79 -8 -16 -11 -32 -7 -36 4 -5 2 -5 -4 -2 -6 4 -19 -2 -29
-13 -14 -16 -20 -17 -27 -8 -6 10 -8 9 -8 -3 0 -8 6 -24 14 -35 14 -18 16 -17
55 24 44 46 71 114 55 140 -6 8 -20 22 -32 30 -21 14 -25 12 -61 -25z"/>
<path d="M1640 843 c-17 -21 -48 -73 -68 -115 -38 -79 -58 -100 -48 -50 15 80
17 133 6 147 -22 26 -27 16 -34 -62 -13 -150 -38 -329 -56 -403 -31 -126 -34
-167 -16 -195 22 -34 36 -32 36 5 0 122 75 421 137 544 37 74 88 146 104 146
13 0 11 -47 -2 -73 -21 -41 -62 -78 -71 -65 -6 10 -8 9 -8 -3 0 -8 6 -24 14
-35 14 -18 16 -17 55 24 52 55 71 111 47 147 -24 37 -58 33 -96 -12z"/>
<path d="M5517 859 c-37 -28 -77 -99 -77 -136 0 -35 27 -63 61 -63 24 1 103
38 84 40 -5 0 7 10 28 21 58 30 39 33 -27 4 -66 -29 -132 -34 -122 -9 3 9 6
20 6 25 0 5 10 9 23 9 38 0 106 57 107 91 0 19 -20 39 -39 39 -9 0 -28 -10
-44 -21z m53 -13 c0 -3 -15 -15 -32 -27 l-33 -23 24 27 c22 24 41 35 41 23z"/>
<path d="M1998 864 c-3 -2 -16 -7 -29 -9 -13 -3 -43 -25 -66 -49 l-43 -45 0
29 c0 25 -15 48 -25 39 -2 -2 -10 -37 -18 -78 -11 -50 -13 -81 -6 -98 10 -28
27 -27 43 3 32 59 73 120 96 143 14 14 24 29 23 33 -2 4 3 5 11 2 15 -6 41 22
28 30 -5 3 -11 3 -14 0z m-48 -27 c0 -2 -15 -16 -32 -33 l-33 -29 29 33 c28
30 36 37 36 29z"/>
<path d="M4874 838 c-15 -19 -16 -20 -1 -9 24 19 21 -2 -4 -30 -17 -20 -20
-21 -15 -5 6 16 4 17 -9 6 -13 -11 -16 -11 -13 0 2 8 -4 15 -13 17 -21 5 -42
-45 -43 -101 -1 -58 20 -53 66 14 20 30 45 66 55 80 l18 25 5 -69 c7 -91 25
-97 25 -8 0 95 -29 128 -71 80z"/>
<path d="M438 816 c10 -13 72 -81 138 -149 l120 -125 48 136 c27 75 51 143 54
150 3 9 -39 12 -188 12 l-191 0 19 -24z"/>
<path d="M2088 808 c-34 -37 -68 -99 -68 -125 1 -57 45 -54 117 9 l48 41 5
-33 c6 -39 28 -55 61 -46 43 11 118 75 140 118 l21 43 -25 -24 c-15 -13 -24
-28 -20 -34 3 -6 1 -7 -6 -3 -6 4 -14 0 -17 -9 -7 -18 -68 -51 -104 -56 -23
-4 -24 -2 -21 44 2 37 -1 47 -13 47 -9 0 -16 8 -16 18 0 50 -59 56 -102 10z
m72 -27 c0 -18 -89 -105 -98 -96 -7 7 48 94 66 104 25 15 32 13 32 -8z"/>
<path d="M2837 820 c-51 -40 -93 -132 -75 -163 15 -27 42 -20 100 28 30 25 58
45 61 45 3 0 7 -17 9 -37 4 -45 28 -54 80 -27 47 24 109 74 103 84 -3 4 2 13
10 20 8 7 15 18 15 24 -1 6 -15 -5 -33 -25 -32 -37 -77 -65 -130 -80 l-29 -8
7 45 c6 40 4 46 -14 51 -11 3 -17 11 -15 18 7 16 -22 45 -45 45 -10 0 -30 -9
-44 -20z m27 -87 c-22 -18 -47 -38 -57 -44 -17 -9 -16 -7 2 29 11 22 33 50 48
61 24 20 28 20 36 5 8 -13 1 -24 -29 -51z"/>
<path d="M4446 798 c-47 -54 -73 -122 -56 -143 21 -25 47 -17 100 30 28 25 55
45 60 45 5 0 10 -17 12 -37 2 -30 8 -39 25 -41 29 -4 86 26 77 40 -4 7 -3 8 5
4 6 -4 23 2 37 13 15 12 23 21 19 21 -5 0 1 10 12 23 11 12 23 29 27 37 4 8
-4 3 -17 -12 -14 -15 -28 -24 -31 -21 -3 3 -8 -2 -12 -11 -7 -18 -50 -43 -97
-57 l-30 -8 7 45 c5 41 4 47 -15 51 -12 3 -18 11 -15 19 7 19 -21 44 -49 44
-15 0 -36 -15 -59 -42z m30 -76 c-26 -24 -50 -42 -53 -39 -8 9 35 74 65 98 25
19 27 20 31 3 2 -11 -14 -34 -43 -62z"/>
<path d="M746 624 c-32 -87 -60 -164 -62 -169 -4 -11 114 -81 122 -72 2 2 3
93 2 202 l-3 199 -59 -160z"/>
</g>
</svg>
